<?xml version="1.0" standalone="no"?>
<!DOCTYPE svg PUBLIC "-//W3C//DTD SVG 20010904//EN"
 "http://www.w3.org/TR/2001/REC-SVG-20010904/DTD/svg10.dtd">
<svg version="1.0" xmlns="http://www.w3.org/2000/svg"
 width="100.000000pt" height="96.000000pt" viewBox="0 0 100.000000 96.000000"
 preserveAspectRatio="xMidYMid meet">

<g transform="translate(0.000000,96.000000) scale(0.100000,-0.100000)"
fill="#000000" stroke="none">
<path d="M45 898 c-3 -7 -4 -200 -3 -428 l3 -415 460 0 460 0 0 425 0 425
-458 3 c-361 2 -459 0 -462 -10z m885 -418 l0 -390 -425 0 -425 0 0 390 0 390
425 0 425 0 0 -390z"/>
<path d="M345 700 c3 -5 17 -10 31 -10 15 0 24 -6 24 -15 0 -11 -12 -15 -50
-15 -47 0 -50 -2 -50 -25 0 -22 -4 -25 -35 -25 l-35 0 0 -55 c0 -48 -2 -55
-20 -55 -17 0 -20 7 -20 51 0 46 -2 50 -16 38 -13 -11 -15 -28 -9 -108 8 -105
25 -148 25 -63 0 45 3 52 20 52 16 0 19 -8 22 -62 l3 -63 36 -3 c26 -2 46 -13
70 -38 l33 -34 158 0 158 0 0 35 c0 28 4 35 19 35 13 0 21 -8 23 -22 2 -18 10
-24 39 -26 48 -4 59 23 59 143 0 121 -10 145 -62 145 -34 0 -38 -3 -38 -25 0
-18 -5 -25 -20 -25 -15 0 -20 7 -20 25 0 23 -4 25 -40 25 l-40 0 0 40 0 40
-55 0 c-42 0 -55 3 -55 15 0 10 10 15 30 15 17 0 30 5 30 10 0 6 -44 10 -111
10 -71 0 -108 -4 -104 -10z m235 -110 c0 -28 2 -30 39 -30 36 0 40 -3 43 -27
3 -26 7 -28 51 -31 46 -3 47 -3 47 27 0 35 14 40 30 12 11 -21 14 -179 4 -205
-9 -24 -32 -19 -36 7 -3 19 -9 22 -48 22 -43 0 -45 -1 -48 -32 l-3 -33 -135 0
-135 0 -30 31 c-17 18 -45 35 -63 38 l-31 7 -3 102 -3 102 36 0 c28 0 35 4 35
20 0 19 7 20 125 20 l125 0 0 -30z"/>
</g>
</svg>
